<svg width="500" height="500" xmlns="http://www.w3.org/2000/svg" fill-rule="evenodd" clip-rule="evenodd" stroke-linejoin="round" stroke-miterlimit="2"><path d="M450 387.214c0 16.267-13.186 29.453-29.452 29.453h-49.31a29.454 29.454 0 00-22.3 10.214c-6.928 8.029-16.533 19.162-23.462 27.19a29.447 29.447 0 01-22.3 10.215H197.662a29.448 29.448 0 01-23.172-11.276c-5.938-7.567-13.723-17.5-19.661-25.067a29.45 29.45 0 00-23.177-11.276h-52.2C63.186 416.667 50 403.481 50 387.214V88.976c0-16.266 13.186-29.452 29.452-29.452h341.096C436.814 59.524 450 72.71 450 88.976v298.238z" fill="#cf8b17"/><path d="M450 363.405c0 16.266-13.186 29.452-29.452 29.452h-49.31a29.457 29.457 0 00-22.3 10.214l-23.462 27.191a29.446 29.446 0 01-22.3 10.214H197.662A29.448 29.448 0 01174.49 429.2c-5.938-7.567-13.723-17.5-19.661-25.067a29.45 29.45 0 00-23.177-11.276h-52.2C63.186 392.857 50 379.671 50 363.405V65.167C50 48.9 63.186 35.714 79.452 35.714h341.096C436.814 35.714 450 48.9 450 65.167v298.238z" fill="#ffab19"/><path d="M420.548 35.714l.757.01.381.014.376.014.752.048.372.029.743.076.371.047.367.048.366.052.362.058.367.066.362.067.357.071.362.076.357.077.352.085.358.091.352.09.695.2.348.105.347.11.343.114.338.119.343.119.334.129.338.128.333.133.329.139.333.142.324.143.328.153.319.152.324.157.319.162.314.162.629.343.31.171.609.362.305.191.3.185.59.391.291.2.29.205.291.209.285.21.281.214.277.214.281.219.271.224.543.457.262.234.266.238.258.238.514.485.247.253.253.247.486.515.238.257.238.267.233.261.457.543.224.272.219.281.214.276.215.281.209.286.21.29.204.291.2.29.391.59.186.3.19.305.362.61.171.309.343.629.162.314.162.319.157.324.153.319.152.329.143.323.143.334.138.328.133.334.129.338.128.333.119.343.119.338.115.343.109.348.105.347.2.695.09.353.091.357.086.352.076.357.076.362.071.357.067.362.067.367.057.362.052.367.048.366.048.372.076.743.028.371.048.752.028.753.01.762v298.238l-.005.381-.005.381-.014.376-.014.376-.024.376-.024.376-.028.372-.038.371-.038.372-.048.371-.048.367-.052.366-.057.362-.067.367-.067.362-.071.357-.076.362-.076.357-.086.353-.091.357-.09.352-.1.348-.1.347-.105.348-.109.348-.115.342-.119.338-.119.343-.128.334-.129.338-.133.333-.138.329-.143.333-.143.324-.152.328-.153.319-.157.324-.162.319-.162.315-.171.314-.172.314-.171.31-.181.304-.181.305-.19.305-.186.3-.195.295-.196.295-.2.291-.204.29-.21.291-.209.286-.215.281-.214.276-.219.281-.224.271-.228.272-.229.271-.233.262-.238.267-.238.257-.243.257-.243.257-.253.248-.247.252-.257.243-.257.243-.258.238-.266.238-.262.233-.272.229-.271.228-.271.224-.281.219-.277.214-.281.215-.285.209-.291.21-.29.205-.291.2-.295.195-.295.195-.3.186-.305.19-.305.181-.304.181-.31.172-.314.171-.315.171-.314.162-.319.162-.324.157-.319.153-.328.152-.324.143-.333.143-.329.138-.333.133-.338.129-.334.128-.343.119-.338.12-.343.114-.347.109-.348.105-.347.1-.348.1-.352.091-.358.09-.352.086-.357.076-.362.076-.357.072-.362.066-.367.067-.362.057-.366.052-.367.048-.371.048-.372.038-.371.038-.372.028-.376.024-.376.024-.376.014-.376.015-.381.004-.381.005h-49.31l-.4.005-.4.005-.4.014-.4.019-.4.024-.395.028-.395.038-.396.039-.395.047-.395.053-.391.052-.39.062-.391.067-.39.071-.386.076-.385.086-.386.086-.381.09-.386.1-.376.1-.381.11-.376.109-.376.119-.372.124-.371.124-.372.133-.366.138-.367.138-.367.148-.362.152-.357.157-.357.162-.357.167-.352.167-.353.176-.347.181-.348.186-.343.185-.343.195-.338.2-.338.2-.333.21-.329.21-.328.219-.329.219-.324.228-.319.229-.314.233-.314.238-.315.243-.309.248-.305.252-.3.257-.3.262-.295.262-.291.271-.29.272-.286.276-.281.281-.281.286-.271.29-.272.295-.266.296-.267.304-23.462 27.191-.262.305-.266.295-.272.295-.276.291-.281.285-.281.281-.286.276-.285.272-.296.271-.295.262-.3.262-.3.257-.305.253-.309.247-.31.243-.314.238-.319.234-.319.228-.324.229-.324.219-.328.219-.334.209-.333.21-.333.2-.343.2-.338.195-.348.186-.343.186-.352.18-.348.177-.357.166-.352.167-.357.162-.362.157-.362.152-.362.148-.367.138-.371.138-.367.134-.371.123-.376.124-.377.119-.376.11-.376.109-.381.1-.381.1-.386.091-.381.085-.385.086-.391.076-.385.072-.391.066-.39.062-.396.053-.39.052-.395.048-.396.038-.4.038-.395.029-.4.023-.395.019-.4.015-.4.004-.405.005H197.662l-.419-.005-.424-.009-.424-.014-.419-.019-.424-.029-.419-.033-.414-.038-.419-.043-.414-.053-.415-.057-.414-.062-.414-.066-.41-.077-.409-.081-.405-.085-.409-.091-.4-.095-.405-.105-.4-.104-.4-.115-.395-.119-.396-.124-.395-.133-.39-.133-.391-.143-.386-.143-.385-.152-.381-.158-.381-.161-.376-.172-.377-.171-.376-.176-.366-.186-.372-.191-.362-.19-.366-.2-.358-.205-.357-.209-.352-.215-.353-.219-.347-.224-.348-.228-.338-.233-.343-.239-.333-.247-.333-.248-.329-.252-.324-.257-.324-.267-.319-.267-.314-.271-.314-.276-.305-.286-.305-.286-.3-.29-.295-.295-.295-.3-.291-.305-.281-.31-.281-.314-.276-.319-.276-.324-.267-.324-.262-.333-19.661-25.067-.262-.333-.272-.324-.271-.324-.276-.319-.281-.314-.286-.309-.286-.305-.295-.3-.295-.295-.3-.291-.305-.286-.31-.285-.309-.277-.314-.271-.319-.267-.324-.266-.324-.257-.329-.253-.333-.247-.338-.248-.338-.238-.338-.234-.348-.228-.347-.224-.353-.219-.352-.214-.357-.21-.362-.205-.362-.2-.362-.19-.371-.19-.367-.186-.376-.176-.377-.172-.376-.171-.381-.162-.381-.157-.385-.153-.386-.143-.391-.142-.39-.134-.395-.133-.395-.124-.396-.119-.4-.114-.4-.105-.404-.105-.405-.095-.405-.09-.405-.086-.409-.081-.41-.076-.414-.067-.414-.062-.415-.057-.414-.052-.419-.043-.419-.038-.419-.034-.419-.028-.419-.019-.424-.015-.424-.009-.424-.005h-52.2l-.381-.005-.381-.004-.376-.015-.376-.014-.376-.024-.376-.024-.372-.028-.371-.038-.372-.038-.371-.048-.367-.048-.366-.052-.362-.057-.367-.067-.362-.066-.357-.072-.362-.076-.357-.076-.352-.086-.358-.09-.352-.091-.348-.1-.347-.1-.348-.105-.347-.109-.343-.114-.338-.12-.343-.119-.334-.128-.338-.129-.333-.133-.329-.138-.333-.143-.324-.143-.328-.152-.319-.153-.324-.157-.319-.162-.314-.162-.315-.171-.314-.171-.31-.172-.304-.181-.305-.181-.305-.19-.3-.186-.295-.195-.295-.195-.291-.2-.29-.205-.291-.21-.285-.209-.281-.215-.277-.214-.281-.219-.271-.224-.271-.228-.272-.229-.262-.233-.266-.238-.258-.238-.257-.243-.257-.243-.247-.252-.253-.248-.243-.257-.243-.257-.238-.257-.238-.267-.233-.262-.229-.271-.228-.272-.224-.271-.219-.281-.214-.276-.215-.281-.209-.286-.21-.291-.204-.29-.2-.291-.196-.295-.195-.295-.186-.3-.19-.305-.181-.305-.181-.304-.171-.31-.172-.314-.171-.314-.162-.315-.162-.319-.157-.324-.153-.319-.152-.328-.143-.324-.143-.333-.138-.329-.133-.333-.129-.338-.128-.334-.119-.343-.119-.338-.115-.342-.109-.348-.105-.348-.1-.347-.1-.348-.09-.352-.091-.357-.086-.353-.076-.357-.076-.362-.071-.357-.067-.362-.067-.367-.057-.362-.052-.366-.048-.367-.048-.371-.038-.372-.038-.371-.028-.372-.024-.376-.024-.376-.014-.376-.014-.376-.005-.381-.005-.381V65.167l.005-.381.005-.381.014-.376.014-.377.024-.376.024-.376.028-.371.038-.372.038-.371.048-.372.048-.366.052-.367.057-.362.067-.367.067-.362.071-.357.076-.362.076-.357.086-.352.091-.357.09-.353.1-.347.1-.348.105-.347.109-.348.115-.343.119-.338.119-.343.128-.333.129-.338.133-.334.138-.328.143-.334.143-.323.152-.329.153-.319.157-.324.162-.319.162-.314.171-.314.172-.315.171-.309.181-.305.181-.305.19-.305.186-.3.195-.295.196-.295.2-.29.204-.291.21-.29.209-.286.215-.281.214-.276.219-.281.224-.272.228-.271.229-.272.233-.261.238-.267.238-.257.243-.257.243-.258.253-.247.247-.253.257-.242.257-.243.258-.238.266-.238.262-.234.272-.228.271-.229.271-.224.281-.219.277-.214.281-.214.285-.21.291-.209.29-.205.291-.2.295-.195.295-.196.3-.185.305-.191.305-.181.304-.181.31-.171.314-.172.315-.171.314-.162.319-.162.324-.157.319-.152.328-.153.324-.143.333-.142.329-.139.333-.133.338-.128.334-.129.343-.119.338-.119.343-.114.347-.11.348-.105.347-.1.348-.1.352-.09.358-.091.352-.085.357-.077.362-.076.357-.071.362-.067.367-.066.362-.058.366-.052.367-.048.371-.047.372-.038.371-.038.372-.029.376-.024.376-.024.376-.014.381-.014.376-.005.381-.005h341.096zM79.495 48.81h-.257l-.214.004-.214.01-.21.009-.21.01-.209.014-.21.019-.204.019-.21.024-.205.024-.204.028-.2.029-.205.033-.2.034-.2.038-.2.038-.2.043-.195.043-.196.047-.195.048-.195.052-.195.053-.191.057-.195.057-.186.062-.19.062-.191.066-.185.067-.186.067-.186.071-.186.076-.181.076-.18.077-.181.081-.181.085-.181.081-.177.091-.176.085-.176.091-.171.095-.177.095-.171.1-.167.096-.171.104-.171.105-.162.105-.167.105-.167.109-.162.115-.162.109-.157.114-.162.119-.157.119-.152.119-.157.124-.153.124-.152.129-.148.128-.147.129-.148.133-.143.133-.147.134-.138.138-.143.138-.138.143-.138.143-.134.143-.133.142-.133.148-.129.148-.129.147-.128.153-.124.152-.119.157-.124.153-.119.161-.119.158-.114.157-.115.162-.109.162-.11.166-.109.167-.105.167-.1.166-.105.167-.1.171-.095.172-.095.176-.095.171-.091.177-.086.176-.09.176-.081.181-.086.181-.081.181-.076.181-.076.181-.076.185-.072.186-.066.186-.067.186-.067.19-.062.191-.061.19-.058.19-.057.191-.052.195-.052.195-.048.196-.048.195-.043.195-.042.2-.039.2-.038.2-.033.2-.033.205-.029.2-.028.205-.024.204-.024.21-.019.205-.019.209-.014.21-.01.209-.009.21-.01.214-.005.214v298.667l.005.214.029.634.014.209.019.21.019.204.024.21.024.205.057.409.066.4.077.4.042.2.043.196.096.39.104.39.057.191.058.195.061.186.062.19.067.191.133.371.072.186.076.186.152.362.081.181.086.181.081.18.09.177.086.176.091.176.095.171.095.177.095.171.1.172.105.166.1.167.105.167.219.333.114.162.11.162.114.157.119.157.119.162.124.152.119.157.124.153.128.152.258.295.133.148.133.143.134.147.138.139.138.142.143.139.138.138.143.133.295.267.295.257.152.128.153.124.157.124.157.119.152.119.162.114.157.119.162.115.167.109.162.11.162.104.171.11.167.1.167.105.171.095.171.1.177.095.171.095.176.091.176.086.177.09.181.081.181.086.181.081.361.152.186.076.186.072.371.133.191.067.381.124.381.114.39.105.391.095.2.043.195.043.4.076.2.033.205.033.2.029.204.029.205.023.21.024.204.019.21.019.209.015.42.019.214.009.214.005H131.7l.567.005.609.014.61.019.609.033.605.038.605.048.605.057.604.062.6.076.6.081.596.091.595.1.595.104.59.115.591.124.586.133.581.138.581.148.581.157.576.162.576.176.571.176.567.191.567.195.562.205.557.209.557.219.552.229.548.233.547.243.543.247.538.258.534.266.533.272.524.281.528.29.515.291.519.304.509.31.51.314.5.324.5.333.495.338.491.343.481.353.48.362.477.366.471.372.467.381.457.385.457.396.452.4.443.409.438.414.434.419.428.429.424.433.419.443.41.448.404.452.4.457.396.467.385.471.353.443 19.657 25.067.176.224.152.181.148.176.314.352.315.343.328.329.167.162.171.162.167.157.352.304.177.148.176.143.181.148.181.138.371.276.191.128.19.134.191.128.195.124.39.238.2.119.2.115.2.109.2.105.205.105.21.104.204.096.21.1.419.181.214.09.643.243.219.076.219.071.438.134.448.124.224.057.447.105.224.047.457.086.229.038.228.033.234.034.228.023.229.029.466.038.467.029.233.009.239.005H303.4l.224-.005.224-.009.219-.01.219-.014.224-.014.219-.024.219-.019.219-.029.219-.024.219-.033.214-.033.219-.038.214-.039.215-.042.214-.048.214-.048.215-.052.209-.052.214-.058.21-.057.209-.066.205-.062.21-.067.204-.071.21-.077.205-.076.2-.076.204-.081.2-.086.2-.085.2-.091.196-.09.195-.095.195-.1.195-.1.191-.1.195-.105.186-.11.19-.109.186-.115.186-.114.185-.119.181-.119.181-.124.181-.124.177-.128.176-.129.176-.133.171-.133.172-.138.166-.139.172-.142.162-.148.166-.143.162-.152.162-.153.157-.152.158-.157.152-.157.157-.162.148-.162.147-.167.176-.2 23.462-27.195.353-.4.385-.433.391-.424.4-.419.4-.41.409-.405.41-.404.419-.391.424-.39.428-.381.429-.376.438-.372.438-.366.448-.358.447-.347.458-.348.457-.338.462-.333.466-.324.472-.319.471-.314.481-.305.481-.3.486-.295.49-.286.495-.281.496-.272.5-.266.504-.262.51-.252.51-.243.514-.243.514-.229.519-.228.524-.219.529-.21.528-.205.529-.2.533-.19.538-.181.538-.176.543-.172.543-.162.552-.157.548-.147.552-.138.553-.134.552-.128.562-.115.557-.114.562-.105.567-.095.562-.086.566-.081.567-.076.571-.066.572-.058.571-.047.576-.048.577-.033.576-.029.576-.019.576-.009.538-.005h49.567l.214-.005.214-.009.21-.01.21-.009.209-.015.21-.019.204-.019.21-.024.205-.023.204-.029.205-.029.2-.033.2-.033.2-.038.2-.038.2-.043.195-.043.196-.048.195-.047.195-.053.195-.052.191-.057.19-.057.191-.062.19-.062.191-.067.185-.067.186-.066.186-.072.186-.076.181-.076.18-.076.181-.081.181-.086.181-.081.177-.09.176-.086.176-.091.171-.095.177-.095.171-.1.167-.095.171-.1.171-.11.162-.105.167-.104.167-.11.162-.114.162-.11.157-.114.162-.119.157-.119.152-.119.152-.124.158-.124.152-.128.148-.129.147-.128.148-.134.143-.133.147-.133.138-.138.143-.139.138-.142.138-.143.134-.143.133-.143.133-.148.129-.147.129-.153.128-.147.124-.153.119-.157.124-.157.119-.157.114-.157.119-.162.11-.157.114-.167.11-.162.109-.166.105-.167.1-.167.1-.166.105-.172.095-.171.095-.177.095-.171.091-.176.086-.176.09-.177.081-.18.086-.177.081-.181.076-.185.076-.181.076-.186.072-.186.066-.185.067-.186.067-.191.062-.19.061-.191.058-.19.057-.191.052-.195.052-.195.048-.19.048-.2.043-.2.042-.196.039-.2.038-.2.033-.2.033-.2.029-.204.028-.205.024-.205.024-.21.019-.204.019-.205.014-.214.01-.21.009-.214.01-.21.005-.214V64.952l-.005-.214-.01-.209-.009-.215-.01-.209-.014-.215-.019-.204-.019-.205-.024-.21-.024-.204-.028-.205-.029-.205-.033-.2-.033-.2-.038-.2-.039-.2-.042-.195-.043-.2-.048-.2-.048-.191-.052-.195-.052-.195-.057-.191-.058-.19-.061-.19-.062-.191-.067-.19-.067-.186-.066-.186-.072-.186-.076-.185-.076-.181-.076-.186-.081-.176-.086-.181-.081-.181-.09-.176-.086-.176-.091-.177-.095-.171-.095-.176-.095-.172-.105-.171-.1-.167-.1-.166-.105-.167-.109-.167-.11-.162-.109-.166-.115-.162-.119-.157-.114-.158-.119-.157-.124-.157-.119-.157-.124-.152-.128-.148-.129-.152-.129-.148-.133-.148-.133-.142-.134-.143-.138-.148-.138-.138-.143-.138-.138-.138-.147-.134-.143-.133-.148-.133-.147-.129-.148-.128-.152-.129-.153-.124-.157-.119-.157-.124-.152-.119-.162-.119-.162-.114-.157-.109-.162-.115-.167-.109-.167-.105-.166-.11-.167-.1-.167-.104-.171-.1-.171-.096-.177-.095-.171-.095-.176-.091-.176-.085-.177-.091-.181-.081-.181-.085-.181-.081-.18-.077-.181-.076-.186-.076-.186-.071-.186-.067-.185-.067-.191-.066-.19-.062-.191-.062-.19-.057-.191-.057-.195-.053-.195-.052-.195-.048-.196-.047-.195-.043-.2-.043-.2-.038-.2-.038-.2-.034-.205-.033-.2-.029-.204-.028-.205-.024-.21-.024-.204-.019-.21-.019-.209-.014-.21-.01-.21-.009-.214-.01-.214-.004H79.495z" fill="#ffba41"/><path d="M282.871 119.052a8.596 8.596 0 00-.909.019c-7.619.619-12.943 3.824-16.962 9.619-1.314 1.891-1.543 3-2.238 4.581-5.338-3.395-12.038-6.685-21.543-7.004-14.352-.481-27.748 6.371-36.395 17.733-8.381 11.005-12.881 25.248-15.091 42.105l-.004.047a.227.227 0 00-.01.058l-.014.071c-.029.195-.043.39-.057.59l-.005.039-.01.071-.004.062c-2.591 29.405-2.067 40.986-.924 48.324-.386.609-.329.438-.948 1.504-8.219 14.1-8.267 30.834-8.467 45.077-.1 7.266.105 13.99.329 19.162.219 6.285-.471 15.428 6.31 23.228 2.361 2.714 5.057 4.9 7.857 6.748 5.485 3.614 12.904 7.076 21.89 7.009h.005c4.248-.038 8.614-1.171 12.619-4.195h.005c3.771-2.848 5.866-6.443 7.019-9.381.881-2.238 1.247-4.267 1.533-6.171 6.053 1.423 12.853 2.495 21.319 2.381 14.457-.2 29.067-5.548 40.972-15.1 12.052-9.667 21.585-24.7 21.585-42.9v-.153c0-.081 0-.162-.004-.238l-.005-.152v-.053c-.4-11.219-.919-18.804-2.11-25.157-1.238-6.6-3.647-12.895-8.543-17.676-2.342-2.286-4.404-3.6-6.247-4.738.062-.205.147-.286.205-.5 1.971-6.981 2.981-14.595 3.776-22.219.8-7.657 1.314-15.343 1.776-21.543.224-3.014.495-5.881.729-8.019.114-1.071.219-1.967.3-2.581.076-.614.409-1.89 0-.271 2.447-9.7.261-19.134-4.205-26.334-4.019-6.481-11.434-12.5-21.191-13.638a8.527 8.527 0 00-2.319-.4c-.009 0-.014-.005-.024-.005h-.004.004z" fill="#f8a839" fill-rule="nonzero"/><path d="M283.405 85.876v.005l.885.019 1.415.09 1.409.153 1.405.214-1.414-.247-.195-.024-1.467-.124 1.124.057.538.091 1.252.152 1.424.224 1.414.276.076.014.834.105.419.129.447.076.972.185.962.2.952.215.943.228.938.238.929.258.919.271.914.281.905.295.895.31.881.319.876.328.872.343.857.357.852.367.833.376.829.386.814.4.815.405.795.419.79.428.781.434.767.447.757.453.748.461.738.472.728.476.715.486.709.49.695.505.691.505.671.514.672.524.657.528.647.534.634.533.628.548.619.557.605.557.6.557.591.572.576.576.571.576.557.586.553.59.543.595.533.6.524.605.509.61.505.614.5.619.486.624.476.628.471.634.462.638.448.643.443.647.438.653.424.662.409.647.415.672.4.676.39.676.386.676.381.686.733 1.39.352.7.348.71.343.709.333.72.324.728.319.729.31.728.3.738.295.753.286.747.28.753.267.762.262.766.252.772.243.776.238.781.224.786.219.79.21.795.2.8.19.81.181.805.172.814.162.824.152.823.143.829.133.833.124.834.114.843.1.847.091.843.081.857.071.857.057.862.053.867.033.867.028.866.015.872.005.885-.01.877-.019.881-.033.89-.043.881-.057.89-.067.896-.081.89-.095.895-.105.9-.119.896-.129.9-.142.9-.158.9-.166.9-.172.852-.052.429-.067.614-.071.69-.076.762-.081.824-.081.867-.081.909-.081.934-.076.957-.077.995-.357 4.862-.2 2.676-.214 2.805-.233 2.895-.129 1.514-.133 1.519-.138 1.538-.148 1.553-.152 1.571-.162 1.572-.167 1.571-.176 1.581-.186 1.605-.2 1.633-.205 1.591.015.014.404.571.396.572.39.576.429.657.685 1.076.696 1.157.666 1.158.634 1.162.6 1.152.566 1.152.538 1.153.51 1.143.481 1.138.457 1.128.424 1.124.405 1.11.376 1.104.357 1.096.333 1.085.31 1.072.295 1.062.272 1.052.257 1.038.238 1.029.219 1.014.209 1.005.186.971.167.895.152.877.143.88.138.877.133.881.129.881.119.876.219 1.771.105.886.095.895.091.891.09.9.162 1.809.081.948.133 1.809.129 1.872.119 1.914.105 1.948.095 1.995.09 2.047.086 2.1.052 1.41.019.219.029 1.191.014.685v.567l-.009 1.257-.034 1.391-.057 1.38-.081 1.377-.1 1.371-.123 1.362-.143 1.357-.167 1.348-.186 1.338-.204 1.333-.229 1.324-.248 1.314-.266 1.305-.286 1.295-.31 1.286-.323 1.276-.343 1.267-.362 1.257-.376 1.243-.396 1.233-.414 1.224-.428 1.21-.448 1.2-.462 1.19-.476 1.176-.495 1.162-.505 1.157-.524 1.138-.533 1.134-.553 1.114-.562 1.105-.576 1.09-.59 1.081-.605 1.067-.614 1.057-.624 1.043-.638 1.028-.653 1.019-.657 1.005-.671.991-.686.981-.69.966-.7.957-.715.943-.719.929-.728.924-.743.904-.748.891-.752.881-.767.871-.771.857-.786.843-.786.834-.795.819-.805.809-.809.795-.819.786-.824.772-.833.761-.838.748-.843.733-.853.729-.857.71-.857.695-.833.662-.829.647-.833.634-.843.628-.848.619-.852.605-.857.6-.862.59-.867.581-.876.572-.876.562-.886.557-.886.543-.89.533-.9.524-.9.514-.905.51-.914.495-.914.486-.919.481-.924.466-.929.457-.933.453-.933.438-.943.428-.948.42-.948.409-.952.405-.957.39-.957.381-.962.372-.972.362-.966.347-.976.343-.977.333-.981.319-.985.315-.986.3-.99.29-.991.281-1 .272-1 .257-1 .252-1.005.238-1.009.229-1.01.219-1.014.209-1.014.196-1.019.19-1.024.176-1.019.167-1.024.152-1.029.143-1.033.133-1.033.124-1.029.11-1.038.1-1.038.086-1.033.08-1.043.067-1.043.053-1.043.042-1.048.034-1.023.019-1.096.009h-1.062l-1.052-.009-.557.6-.738.762-.762.757-.786.747-.814.743-.833.734-.862.723-.881.715-.624.481-.61.443.024-.01-.662.49-.966.681-.977.658-.985.633-1 .609-1.005.591-1.019.562-1.024.538-1.028.514-1.039.491-1.042.462-1.043.438-1.048.414-1.047.39-1.048.367-1.048.338-1.047.319-1.043.291-1.043.271-1.038.248-1.029.224-1.028.2-1.019.181-1.015.161-1.004.139-.996.119-.99.104-.976.081-.967.067-.967.048-.947.028-.943.019h-.862l-.819-.009-.814-.019-.815-.029-.809-.038-.805-.048-.795-.057-.795-.066-.791-.072-.776-.086-.781-.09-.771-.1-.767-.11-.762-.114-.748-.124-.747-.133-.743-.138-.733-.148-.729-.152-.724-.157-.714-.167-.705-.171-.7-.181-.7-.186-.686-.191-.681-.195-.671-.2-.671-.205-.658-.214-.728-.238-1.21-.419-1.252-.462-1.229-.481-1.2-.49-1.166-.5-1.143-.515-1.114-.523-1.086-.529-1.057-.538-1.029-.543-1.005-.548-.971-.547-.948-.553-.923-.552-.896-.552-.866-.548-.853-.557-.876-.586-.89-.614-.9-.638-.91-.662-.914-.691-.919-.714-.924-.743-.929-.771-.928-.8-.929-.829-.928-.862-.924-.89-.924-.919-.919-.952-.91-.986-.89-1.005-.743-.871-.719-.877-.695-.885-.676-.891-.653-.905-.633-.909-.605-.91-.59-.919-.562-.923-.548-.929-.519-.929-.495-.928-.476-.929-.457-.928-.429-.924-.414-.924-.391-.924-.366-.909-.353-.91-.328-.9-.31-.895-.29-.886-.277-.876-.257-.871-.238-.857-.224-.848-.204-.833-.196-.829-.176-.805-.162-.805-.152-.785-.138-.772-.129-.757-.114-.747-.11-.729-.095-.714-.086-.7-.085-.757-.124-1.243-.105-1.253-.081-1.185-.062-1.119-.043-1.048-.033-.971-.024-.92-.028-1.466-.024-1.224-.01-.414-.009-.296-.081-1.904-.081-2.296-.038-1.242-.038-1.253-.034-1.285-.028-1.315-.024-1.347-.024-1.377-.014-1.4-.01-1.428-.004-1.457.004-1.476.01-1.5.014-1.481.038-2.767.024-1.438.024-1.481.033-1.529.043-1.576.053-1.614.061-1.657.081-1.7.096-1.696.057-.923.057-.891.067-.905.071-.914.081-.919.081-.929.095-.942.095-.943.11-.957.114-.967.124-.976.129-.981.142-.991.148-1 .162-1.004.171-1.015.181-1.024.191-1.033.205-1.038.219-1.043.228-1.052.238-1.057.257-1.067.272-1.071.286-1.077.295-1.085.314-1.091.333-1.095.348-1.1.362-1.105.381-1.109.4-1.115.414-1.114.434-1.119.457-1.124.471-1.124.205-.466-.019-.372-.057-1.404-.043-1.448-.033-1.486-.02-1.533-.009-1.576.005-1.629.019-1.676.028-1.738.043-1.791.057-1.852.072-1.919.085-1.981.1-2.057.11-2.124.129-2.205.147-2.281.157-2.362.177-2.447.19-2.538.21-2.624.223-2.719.21-2.381.028-.476.048-.424.033-.419.2-1.667.081-.476.005-.052-.019.114.043-.314.133-.948.134-.948.142-.942.143-.943.153-.943.152-.943.162-.938.167-.943.171-.938.176-.938.181-.934.186-.938.195-.938.2-.933.205-.933.209-.929.215-.933.224-.929.228-.928.238-.929.243-.929.248-.923.257-.929.262-.919.266-.929.277-.919.285-.919.291-.923.3-.915.305-.919.314-.914.324-.914.328-.915.338-.909.348-.91.352-.904.367-.91.371-.905.377-.9.39-.905.4-.895.405-.9.414-.89.429-.895.433-.886.443-.891.457-.881.462-.881.471-.876.486-.876.491-.876.504-.867.515-.862.523-.862.534-.857.543-.852.552-.853.567-.842.571-.838.586-.839.595-.828.61-.824.628-.838.686-.886.709-.895.719-.881.738-.867.743-.862.757-.847.772-.838.781-.824.79-.81.8-.804.819-.791.824-.776.834-.767.847-.752.857-.743.867-.728.876-.715.891-.705.9-.69.904-.676.919-.667.934-.652.933-.638.948-.624.957-.614.967-.596.971-.585.986-.567.995-.557 1.005-.543 1.009-.529 1.019-.509 1.029-.5 1.033-.486 1.048-.467 1.047-.452 1.062-.438 1.067-.419 1.076-.41 1.081-.39 1.091-.376 1.1-.357 1.104-.343 1.11-.329 1.114-.309 1.124-.296 1.129-.276 1.133-.257 1.143-.243 1.147-.228 1.153-.205 1.157-.191 1.162-.171 1.162-.157 1.171-.138 1.176-.119 1.181-.1 1.181-.081 1.186-.062 1.186-.048 1.195-.024 1.19-.009 1.2.014 1.148.029.829.028.776.038.771.048.767.052.762.062.762.067.757.076.747.081.748.091.748.1.738.1.733.114.729.119.723.124.724.133.057.01.548-.343.69-.419.7-.41.705-.4.705-.381.714-.376.719-.367.724-.352.733-.343.734-.328.738-.319.743-.31.738-.295.743-.281.752-.276.752-.258.748-.252.748-.233.752-.229.757-.214.753-.205.752-.19.752-.181.753-.172.752-.162.748-.147.743-.138.752-.129.743-.119.738-.109.748-.1.738-.091.733-.081.738-.076.952-.081 1.105-.067 1.134-.038 1.057-.009.619.009zm-.991 33.172l-.228.009-.224.014-.357.029-.353.038-.347.038-.343.043-.343.043-.338.052-.338.053-.333.057-.329.062-.324.066-.324.067-.323.071-.315.081-.314.077-.31.085-.309.086-.305.095-.3.096-.3.095-.295.105-.295.104-.291.115-.286.114-.285.114-.281.124-.276.124-.277.133-.276.133-.266.134-.272.143-.262.142-.266.148-.258.152-.257.158-.257.162-.252.161-.248.167-.247.172-.243.176-.243.176-.238.186-.238.185-.234.191-.233.19-.233.2-.224.2-.229.205-.224.21-.219.214-.219.214-.214.219-.214.229-.215.224-.209.233-.205.238-.205.238-.204.243-.2.248-.2.247-.2.257-.196.257-.19.262-.191.267-.19.271-.233.343-.21.334-.19.314-.172.3-.157.29-.138.281-.129.277-.123.271-.11.262-.109.267-.205.528-.219.543-.115.281-.128.29-.505-.314-.509-.319-.524-.314-.529-.314-.543-.31-.547-.305-.557-.305-.567-.3-.576-.295-.591-.285-.6-.286-.609-.276-.619-.267-.634-.267-.642-.252-.658-.248-.666-.233-.681-.229-.695-.219-.705-.204-.357-.1-.362-.096-.367-.095-.367-.09-.371-.086-.376-.086-.376-.081-.386-.076-.386-.076-.386-.072-.395-.066-.395-.062-.4-.062-.405-.057-.409-.053-.41-.052-.414-.043-.424-.043-.419-.038-.429-.033-.433-.029-.433-.028-.438-.019-.448-.019-.671-.015-.667-.009-.671.005-.667.014-.667.024-.662.038-.662.047-.662.053-.657.066-.657.077-.652.09-.648.095-.652.105-.643.119-.643.124-.643.138-.638.148-.633.152-.634.167-.628.176-.624.181-.624.195-.619.205-.619.209-.609.219-.61.234-.605.238-.6.248-.6.257-.595.266-.586.277-.585.285-.586.291-.576.3-.572.309-.566.319-.567.329-.557.333-.557.343-.548.352-.547.358-.539.366-.533.376-.533.386-.524.391-.519.4-.514.404-.505.415-.505.423-.495.429-.495.438-.486.448-.476.452-.476.457-.467.467-.462.476-.452.481-.453.486-.438.495-.438.505-.429.509-.423.515-.415.523-.409.529-.391.514-.385.524-.377.529-.371.533-.371.538-.362.538-.357.548-.348.552-.348.557-.338.557-.338.567-.328.572-.324.571-.319.581-.315.581-.309.586-.305.595-.3.595-.295.6-.286.61-.286.609-.276.614-.276.619-.271.624-.262.624-.262.633-.253.639-.252.642-.243.643-.243.648-.238.657-.228.657-.229.662-.224.667-.219.671-.214.676-.21.681-.204.681-.2.691-.196.69-.195.695-.186.7-.185.705-.181.71-.176.714-.172.714-.166.724-.162.724-.162.728-.157.734-.153.738-.147.743-.143.743-.143.752-.138.752-.134.758-.128.761-.124.762-.124.772-.119.771-.114.776-.114.781-.11.786-.105.786-.004.047-.01.058-.014.071-.034.295-.023.295-.005.039-.01.071-.004.062-.234 2.705-.214 2.604-.2 2.5-.181 2.41-.167 2.309-.147 2.219-.138 2.134-.119 2.043-.1 1.957-.091 1.876-.081 1.8-.062 1.719-.047 1.648-.038 1.571-.029 1.505-.014 1.433-.005 1.376.005 1.31.019 1.248.024 1.195.038 1.138.042 1.086.053 1.038.062.985.066.948.072.9.081.862.086.828.095.791.095.757.1.729.105.7-.124.195-.1.148-.162.238-.09.138-.119.185-.153.253-.2.347-.376.662-.367.667-.357.671-.347.672-.334.676-.319.681-.314.686-.3.685-.291.691-.281.69-.266.696-.262.7-.253.7-.238.7-.233.704-.224.705-.214.71-.205.709-.195.714-.186.715-.181.714-.171.719-.167.714-.157.719-.148.724-.142.719-.134.724-.128.719-.124.724-.114.724-.11.724-.1.723-.1.729-.09.724-.086.724-.081.723-.076.724-.067.724-.067.719-.062.724-.057.719-.052.724-.048.719-.047.714-.076 1.433-.067 1.424-.057 1.419-.043 1.41-.038 1.4-.029 1.395-.024 1.381-.023 1.367-.039 2.7-.014 1.352-.009 1.343v1.328l.004 1.31.005 1.29.014 1.267.02 1.252.023 1.224.029 1.2.028 1.176.034 1.148.038 1.119.076 2.143.081 2.01.019.595.014.614.024 1.271.029 1.329.014.681.024.695.033.7.038.715.048.723.062.734.076.738.038.371.048.372.104.752.058.376.066.381.067.376.076.381.076.386.086.381.086.386.095.381.21.771.114.386.119.385.128.386.134.386.143.386.147.385.157.386.162.381.172.386.181.385.185.381.196.386.204.381.215.381.223.381.229.376.243.381.252.376.257.372.272.376.281.371.29.372.305.366.31.367.447.505.453.49.461.477.472.466.471.457.481.443.486.438.49.424.5.41.5.404.51.396.51.385.514.377.519.366.519.357.524.353.519.338.533.338.543.333.552.334.567.328.571.324.591.319.595.314.61.31.619.3.628.3.638.286.653.28.662.267.671.262.681.252.691.239.352.119.705.219.357.109.362.1.362.105.362.095.371.095.367.091.371.086.752.161.381.077.381.071.386.067.386.062.39.062.391.052.395.052.395.048.4.043.405.038.4.033.409.029.405.024.415.019.409.014.419.009.414.005h.429l.4-.009.4-.01.4-.024.4-.023.4-.034.4-.043.4-.047.4-.057.4-.062.4-.072.405-.081.4-.085.4-.096.4-.1.395-.114.4-.119.395-.129.4-.138.395-.147.396-.157.395-.167.39-.176.391-.186.39-.19.391-.205.386-.214.39-.229.381-.233.386-.248.376-.252.381-.267.376-.281h.005l.347-.267.338-.276.334-.276.319-.281.309-.286.305-.285.291-.291.285-.29.272-.296.266-.3.258-.3.252-.3.238-.3.233-.304.229-.3.214-.305.21-.305.205-.305.195-.304.185-.305.181-.3.172-.3.167-.305.161-.295.153-.3.147-.295.139-.291.138-.29.128-.286.119-.286.119-.281.11-.276.157-.419.148-.414.138-.405.128-.405.115-.4.109-.39.1-.391.095-.385.086-.386.076-.376.076-.377.067-.371.129-.733.109-.719 1.143.262.581.128 1.171.248.596.119.6.119.604.109.61.115 1.238.209.629.1.638.095.643.091.647.09.653.081.661.081.672.072.676.071.686.062.695.057.7.057.705.048.719.043.724.038.733.028.743.024.752.019.762.015.767.004h.781l.79-.004.676-.015.677-.019.681-.028.676-.038.681-.043.676-.048.676-.057.681-.067.676-.071.676-.081.677-.086.676-.095.676-.105.676-.109.672-.115.676-.123.671-.134.672-.133.671-.148.667-.152.671-.157.667-.167.666-.176.662-.181.667-.186.662-.195.662-.2.657-.21.657-.214.657-.224.653-.228.652-.238.652-.243.648-.248.648-.257.643-.267.642-.266.638-.281.639-.281.638-.291.633-.295.629-.305.628-.309.624-.319.624-.324.619-.329.619-.338.614-.343.614-.347.605-.357.61-.362.6-.372.6-.376.595-.381.595-.385.586-.396.586-.4.585-.409.577-.415.576-.419.571-.423.567-.434.566-.438.558-.447.562-.458.561-.461.558-.472.547-.481.548-.49.543-.496.538-.504.533-.51.529-.519.519-.524.519-.533.509-.538.51-.548.5-.557.495-.562.486-.566.485-.577.477-.585.466-.591.462-.595.457-.605.448-.609.443-.619.433-.624.424-.629.419-.638.414-.643.4-.652.396-.657.385-.662.376-.672.372-.676.362-.681.347-.685.343-.696.334-.7.323-.709.315-.71.304-.719.291-.724.286-.733.271-.733.267-.743.252-.748.238-.752.234-.757.219-.767.209-.771.195-.772.186-.781.176-.785.162-.791.148-.8.138-.8.128-.809.11-.81.1-.819.09-.819.072-.829.062-.833.047-.833.034-.843.024-.848.004-.847v-.153l-.004-.238-.005-.152v-.053l-.076-2.062-.081-1.981-.086-1.9-.091-1.828-.095-1.757-.1-1.686-.109-1.624-.119-1.566-.067-.758-.062-.747-.071-.734-.067-.719-.076-.709-.076-.695-.077-.686-.081-.671-.085-.662-.091-.653-.09-.643-.095-.628-.1-.624-.1-.614-.105-.61-.11-.6-.124-.614-.123-.619-.134-.614-.143-.61-.147-.609-.157-.605-.167-.6-.176-.6-.181-.595-.195-.596-.2-.585-.21-.586-.224-.576-.228-.577-.243-.566-.248-.567-.262-.557-.276-.557-.281-.548-.295-.538-.31-.538-.319-.529-.333-.523-.167-.257-.176-.258-.176-.257-.181-.252-.181-.253-.186-.247-.19-.248-.195-.247-.196-.243-.2-.243-.2-.238-.209-.238-.21-.238-.214-.234-.214-.228-.219-.234-.224-.223-.229-.229-.438-.414-.428-.4-.424-.372-.414-.357-.415-.338-.404-.324-.396-.305-.395-.29-.386-.276-.381-.267-.376-.252-.366-.243-.367-.233-.357-.229-.7-.438.024-.072.028-.061.053-.115.052-.114.024-.062.024-.076.185-.652.176-.662.172-.662.162-.667.162-.671.157-.677.152-.676.143-.676.143-.681.138-.686.133-.685.129-.691.124-.695.124-.691.114-.7.114-.695.11-.7.109-.705.205-1.409.19-1.414.186-1.419.172-1.424.166-1.424.157-1.429.153-1.428.147-1.433.143-1.439.134-1.428.128-1.424.124-1.414.119-1.41.219-2.771.21-2.7.195-2.619.357-4.905.086-1.124.09-1.1.091-1.076.095-1.038.095-1 .091-.952.09-.896.091-.833.08-.771.081-.691.139-1.119.038-.252.052-.277.09-.442.02-.086-.02.057-.18.729.109-.458.105-.452.1-.452.09-.453.086-.452.076-.452.072-.453.066-.452.062-.448.053-.447.042-.448.043-.448.034-.447.028-.443.019-.448.019-.443.01-.443.005-.438-.005-.442-.005-.439-.014-.433-.019-.438-.024-.433-.029-.434-.038-.433-.038-.429-.047-.428-.053-.429-.057-.424-.062-.423-.067-.424-.071-.419-.076-.419-.086-.415-.086-.414-.09-.414-.1-.41-.1-.409-.105-.405-.114-.405-.114-.4-.124-.4-.124-.4-.129-.395-.133-.39-.138-.391-.143-.39-.148-.386-.152-.381-.152-.381-.162-.376-.162-.376-.167-.372-.171-.366-.176-.367-.181-.367-.181-.362-.186-.357-.19-.352-.196-.353-.195-.347-.2-.348-.205-.343-.209-.338-.191-.305-.195-.3-.2-.304-.205-.3-.214-.3-.214-.3-.219-.296-.224-.295-.233-.295-.234-.29-.238-.296-.248-.285-.247-.291-.253-.286-.257-.281-.262-.281-.266-.28-.272-.277-.281-.271-.281-.272-.281-.271-.29-.267-.295-.262-.3-.261-.3-.253-.31-.257-.309-.248-.319-.247-.319-.243-.324-.243-.329-.233-.333-.234-.338-.228-.343-.224-.343-.219-.352-.219-.353-.21-.357-.209-.362-.2-.366-.2-.372-.191-.376-.19-.376-.186-.381-.176-.386-.171-.39-.172-.396-.162-.395-.157-.405-.152-.404-.148-.405-.138-.414-.138-.419-.129-.419-.119-.424-.119-.424-.109-.433-.105-.434-.095-.438-.091-.443-.085-.443-.077-.452-.071-.452-.067-.453-.057-.285-.086-.286-.071-.286-.067-.29-.057-.291-.043-.29-.038-.296-.024-.295-.014-.024-.005h-.004.004l-.228-.004h-.229zm51.476 109.523l.315-.652.043-.109-.358.761zM291.024 86.762l.595.095.981.224 1.376.367-1.452-.438-.519-.091-.386-.062-.348-.081-1.233-.152.986.138z" fill="#fff"/><path d="M269.243 167.971a2.74 2.74 0 00.395-.195c.952-.552 1.467-1.438 1.824-3.171.352-1.734.352-4.091.286-6.462-.072-2.376-.234-4.724.204-7.01.219-1.138.6-2.347 1.553-3.428.952-1.081 2.538-1.767 4.009-1.8 3.624-.086 7.205.466 9.429 3.309 2.219 2.838 2.19 6.719.957 11.615-.41 1.604-.795 6.171-1.095 11.571-.3 5.4-.595 11.819-1.129 18.033-.533 6.215-1.286 12.2-2.638 16.948-.676 2.376-1.486 4.452-2.686 6.186-1.204 1.733-3.076 3.257-5.423 3.423-3.129.224-6.029-.938-7.61-3.038-1.576-2.1-1.971-4.533-2.186-6.971-.423-4.886 0-10.367-1.071-14.086-1.357-4.733-2.833-11.333-5.376-16.519-1.272-2.59-2.791-4.781-4.515-6.224-1.719-1.447-3.552-2.228-6.095-2.209-6 .052-8.752 1.347-10.671 3.386-1.919 2.033-3.153 5.395-4.557 9.928-2.824 9.124-5.262 17.338-2.781 25.7 1.29 4.348 2.523 6.405 5.614 8.262 3.09 1.857 8.486 3.348 17.509 4.881 9.434 1.605 19.934 4.852 28.32 10.981 8.385 6.133 14.576 15.452 14.576 28.119 0 12.51-5.11 21.905-12.824 27.862-7.714 5.957-17.805 8.6-27.986 8.738-16.59.224-27.557-5.419-33.676-9.267-.762 3.553-.938 8.224-.819 12.996.076 3.123.138 6.057-.557 8.719-.348 1.333-.91 2.676-2.019 3.781-1.115 1.104-2.795 1.747-4.424 1.766-4.819.038-8.329-2.414-9.857-5.333-1.529-2.914-1.557-5.933-1.557-7.843 0-1.567-.196-14.071-.353-26.233-.081-6.081-.152-12.124-.181-16.796a490.512 490.512 0 01-.009-5.814c.005-1.49-.057-2.043.095-3.114.41-2.833 2.138-4.414 4.333-6.11 2.196-1.695 5.086-3.123 8.434-3.123 2.328 0 4.266 1.395 5.462 2.942 1.195 1.553 1.962 3.362 2.59 5.281 1.257 3.834 1.881 8.181 2.3 11.248.248 1.81 2.572 6.871 6.943 10.895 4.371 4.029 10.609 7.343 18.962 7.343 8.895 0 16.252-1.238 20.819-3.805 4.567-2.566 6.695-5.904 6.195-12.323-.505-6.439-3.695-11.929-9.324-16.315-5.628-4.385-13.738-7.547-23.69-8.762-10.762-1.314-19.9-4.585-25.924-11.466-6.019-6.886-8.471-17.015-6.852-30.781l.004-.019v-.015c1.91-14.642 5.677-25.452 11.567-32.742 5.886-7.286 14.057-10.753 23.333-10.443 9.729.323 14.981 6.776 18.081 11.676 1.553 2.452 2.8 4.59 3.591 5.414.29.3.457.395.5.414l-.01.005h.005c.019.005.019.005.005-.005zm-.01.005z" fill="#fff"/></svg>